<?xml version="1.0" encoding="utf-8"?>
<!-- Generator: Adobe Illustrator 14.0.0, SVG Export Plug-In . SVG Version: 6.00 Build 43363)  -->
<!DOCTYPE svg PUBLIC "-//W3C//DTD SVG 1.0//EN" "http://www.w3.org/TR/2001/REC-SVG-20010904/DTD/svg10.dtd">
<svg version="1.0" id="Ebene_1" xmlns="http://www.w3.org/2000/svg" xmlns:xlink="http://www.w3.org/1999/xlink" x="0px" y="0px"
	 width="593.479px" height="485.166px" viewBox="-154.175 -36.139 593.479 485.166"
	 enable-background="new -154.175 -36.139 593.479 485.166" xml:space="preserve">
<g>
	<path fill="#000080" d="M71.822,109.976C71.822,47.61,21.191-3.019-41.174-3.019c-62.37,0-113,50.628-113,112.994
		c0,62.37,50.63,113.002,113,113.002C21.191,222.978,71.822,172.346,71.822,109.976"/>
	<path fill="#FFFFFF" d="M38.735,63.155c0-18.263-14.83-33.089-33.091-33.089c-18.258,0-33.086,14.826-33.086,33.089
		c0,18.258,14.828,33.089,33.086,33.089C23.905,96.244,38.735,81.413,38.735,63.155"/>
	<path fill="#000080" d="M104.908-3.053c0-18.263-14.828-33.086-33.086-33.086c-18.263,0-33.087,14.824-33.087,33.086
		c0,18.261,14.824,33.089,33.087,33.089C90.08,30.036,104.908,15.24,104.908-3.053"/>
</g>
<g>
	<path fill="#000080" d="M257.539,336.023c0-62.365-50.633-112.994-112.998-112.994c-62.37,0-112.998,50.629-112.998,112.994
		c0,62.37,50.628,113.003,112.998,113.003C206.906,449.026,257.539,398.394,257.539,336.023"/>
	<path fill="#FFFFFF" d="M177.626,269.808c0-18.259-14.828-33.087-33.089-33.087c-18.259,0-33.087,14.828-33.089,33.087
		c0,18.263,14.828,33.091,33.089,33.091C162.795,302.898,177.626,288.066,177.626,269.808"/>
	<path fill="#000080" d="M177.604,176.196c0-18.263-14.828-33.087-33.089-33.087c-18.258,0-33.087,14.828-33.087,33.087
		c0,18.263,14.829,33.091,33.087,33.091C162.776,209.287,177.604,194.488,177.604,176.196"/>
</g>
<g>
	<path fill="#000080" d="M213.31,109.976c0,62.37,50.631,113.002,112.996,113.002c62.37,0,112.998-50.632,112.998-113.002
		c0-62.366-50.628-112.994-112.998-112.994C263.941-3.019,213.31,47.61,213.31,109.976"/>
	<path fill="#FFFFFF" d="M246.399,63.155c0,18.258,14.828,33.089,33.087,33.089c18.26,0,33.088-14.831,33.088-33.089
		c0-18.263-14.828-33.089-33.088-33.089C261.227,30.066,246.399,44.892,246.399,63.155"/>
	<path fill="#000080" d="M180.223-3.053c0,18.292,14.828,33.089,33.087,33.089c18.261,0,33.089-14.828,33.089-33.089
		c0-18.263-14.828-33.086-33.089-33.086C195.052-36.139,180.223-21.315,180.223-3.053"/>
</g>
</svg>
